/* XPM */
static char *c598236dd3634fde9a64c200c9bfa5a7[] = {
/* columns rows colors chars-per-pixel */
"16 16 88 1 ",
"  c #91979E",
". c #92989F",
"X c #92999F",
"o c #9299A0",
"O c #9399A0",
"+ c #939AA0",
"@ c #939AA1",
"# c #949AA1",
"$ c #949BA1",
"% c #949BA2",
"& c #959BA2",
"* c #969CA2",
"= c #969CA3",
"- c #979DA4",
"; c #979EA5",
": c #989EA5",
"> c #989FA5",
", c #999FA6",
"< c #99A0A6",
"1 c #9AA0A6",
"2 c #9BA1A7",
"3 c #9AA0A8",
"4 c #9BA1A8",
"5 c #9BA2A8",
"6 c #9CA2A9",
"7 c #9DA3A9",
"8 c #9DA3AA",
"9 c #9EA3AA",
"0 c #9EA4AA",
"q c #9FA5AB",
"w c #9FA5AC",
"e c #A0A5AC",
"r c #A0A6AC",
"t c #A1A6AD",
"y c #A1A7AE",
"u c #A2A7AE",
"i c #A3A8AE",
"p c #A4A9B0",
"a c #A4AAB0",
"s c #A5ABB1",
"d c #A6ABB1",
"f c #A6ACB2",
"g c #A7ACB2",
"h c #A8ADB3",
"j c #AAAFB5",
"k c #ABB0B6",
"l c #ABB1B7",
"z c #ACB2B8",
"x c #ADB2B8",
"c c #ADB3B9",
"v c #AEB3B9",
"b c #AEB4B9",
"n c #AEB4BA",
"m c #AFB4BA",
"M c #B0B5BB",
"N c #B1B6BC",
"B c #B1B7BC",
"V c #B2B7BD",
"C c #B3B8BD",
"Z c #B2B8BE",
"A c #B3B9BE",
"S c #B4B9BF",
"D c #B5BABF",
"F c #B5BAC0",
"G c #B6BBC0",
"H c #B6BBC1",
"J c #B6BCC1",
"K c #B7BCC1",
"L c #B7BCC2",
"P c #B8BDC2",
"I c #B8BDC3",
"U c #B9BEC4",
"Y c #BABFC4",
"T c #BABFC5",
"R c #BBC0C5",
"E c #BBC0C6",
"W c #BCC1C6",
"Q c #BDC2C7",
"! c #BDC2C8",
"~ c #BEC3C8",
"^ c #BFC4C9",
"/ c #BFC4CA",
"( c #C0C5C9",
") c #C0C5CA",
"_ c #C1C6CB",
"` c #C3C8CE",
"' c #C4C9CE",
"] c None",
/* pixels */
"]]]]]])))/]]]]]]",
"]]]]YYW!!KZS]]]]",
"]]]KPE)`')Exz]]]",
"]]SHPY!//!WKjf]]",
"]mSN]PYEEYKSMif]",
"]Nx]]SSHKHSZmf0]",
"fMh]]]NZSZMxzf2]",
"fxa]j]mx]]x]]]]]",
"pz]ia]jj]]]]]]]]",
"0m]uu]]f]a]uu7&]",
"]]447w]]uu074,&]",
"]]p,,4]]744,;X&]",
"]]iw@=22;;&&@@]]",
"]]]00&@@ X&@X]]]",
"]]]],2,,&&@X]]]]",
"]]]]]]XX@ ]]]]]]"
};
