/* XPM */
static char *ccc90c4c35724fb5f9cb7c504e81e29c[] = {
/* columns rows colors chars-per-pixel */
"128 128 30 1 ",
"  c #8A9197",
". c #8D949B",
"X c #90979E",
"o c #92989F",
"O c #9197A0",
"+ c #959CA3",
"@ c #999EA5",
"# c #9B9FA8",
"$ c #9BA0A6",
"% c #9DA3AA",
"& c #A1A6AD",
"* c #A3A9AF",
"= c #A3A7B0",
"- c #A6ABB1",
"; c #A9AEB4",
": c #ABB0B6",
"> c #AEB3B9",
", c #B1B6BC",
"< c #B4B9BE",
"1 c #B6BBC1",
"2 c #B9BEC3",
"3 c #BCC1C6",
"4 c #BEC3C9",
"5 c #C1C6CB",
"6 c #C4C9CE",
"7 c #C6CCD0",
"8 c #C9CED2",
"9 c #CDD1D5",
"0 c #D0D3D8",
"q c None",
/* pixels */
"qqqqqqqqqqqqqqqqqqqqqqqqqqqqqqqqqqqqqqqqqqqqqqqqqqqqqqqqqqqqqqqqqqqqqqqqqqqqqqqqqqqqqqqqqqqqqqqqqqqqqqqqqqqqqqqqqqqqqqqqqqqqqqqq",
"qqqqqqqqqqqqqqqqqqqqqqqqqqqqqqqqqqqqqqqqqqqqqqqqqqqqqqqqqqqqqqqqqqqqqqqqqqqqqqqqqqqqqqqqqqqqqqqqqqqqqqqqqqqqqqqqqqqqqqqqqqqqqqqq",
"qqqqqqqqqqqqqqqqqqqqqqqqqqqqqqqqqqqqqqqqqqqqqqqqqqqqqqqqqqq0988788909qqqqqqqqqqqqqqqqqqqqqqqqqqqqqqqqqqqqqqqqqqqqqqqqqqqqqqqqqqq",
"qqqqqqqqqqqqqqqqqqqqqqqqqqqqqqqqqqqqqqqqqqqqqqqqqqqq877666666667766666767778qqqqqqqqqqqqqqqqqqqqqqqqqqqqqqqqqqqqqqqqqqqqqqqqqqqq",
"qqqqqqqqqqqqqqqqqqqqqqqqqqqqqqqqqqqqqqqqqqqqqqqq76555566646667777667666665666678qqqqqqqqqqqqqqqqqqqqqqqqqqqqqqqqqqqqqqqqqqqqqqqq",
"qqqqqqqqqqqqqqqqqqqqqqqqqqqqqqqqqqqqqqqqqqqq665444455656666666677766766666556455668qqqqqqqqqqqqqqqqqqqqqqqqqqqqqqqqqqqqqqqqqqqqq",
"qqqqqqqqqqqqqqqqqqqqqqqqqqqqqqqqqqqqqqqqqq54443445555556666767777677667656665554444467qqqqqqqqqqqqqqqqqqqqqqqqqqqqqqqqqqqqqqqqqq",
"qqqqqqqqqqqqqqqqqqqqqqqqqqqqqqqqqqqqqqq7543344444454756664646444555556666656665564444444qqqqqqqqqqqqqqqqqqqqqqqqqqqqqqqqqqqqqqqq",
"qqqqqqqqqqqqqqqqqqqqqqqqqqqqqqqqqqqqq64224244444555442211,,>>:::;;;;::>,113444644444443344qqqqqqqqqqqqqqqqqqqqqqqqqqqqqqqqqqqqqq",
"qqqqqqqqqqqqqqqqqqqqqqqqqqqqqqqqqqq54222424424444211<>,>>>>:::::;;;--**-==*-:,33444444434333qqqqqqqqqqqqqqqqqqqqqqqqqqqqqqqqqqqq",
"qqqqqqqqqqqqqqqqqqqqqqqqqqqqqqqqq622222424444221,,,>,,>>>>::>:::>;;---***=&&&&&*;1344333332244qqqqqqqqqqqqqqqqqqqqqqqqqqqqqqqqqq",
"qqqqqqqqqqqqqqqqqqqqqqqqqqqqqqqq42222222422211<11,,,>,<1222445566444331,:;*&&&&&&&&;<34333333335qqqqqqqqqqqqqqqqqqqqqqqqqqqqqqqq",
"qqqqqqqqqqqqqqqqqqqqqqqqqqqqqq3212122232221<<,1,,12234567777778888887776633<>;*&&%%%%*:3333122224qqqqqqqqqqqqqqqqqqqqqqqqqqqqqqq",
"qqqqqqqqqqqqqqqqqqqqqqqqqqqqq21<12123222111<11112445665655676778888877667666443,;&&%%%%=>3332221336qqqqqqqqqqqqqqqqqqqqqqqqqqqqq",
"qqqqqqqqqqqqqqqqqqqqqqqqqqq51<<121212212111122445545656666677777776877764766644443>*%%%$$*:12222<<<4qqqqqqqqqqqqqqqqqqqqqqqqqqqq",
"qqqqqqqqqqqqqqqqqqqqqqqqqq3<<<<11212121121122445455556655666777778867777746666744443,-%$$$$*>222<3<<3qqqqqqqqqqqqqqqqqqqqqqqqqqq",
"qqqqqqqqqqqqqqqqqqqqqqqqq2<<<<<1222222222244444445555666666657776877776665655555554441>=%@@@%-11223<<<6qqqqqqqqqqqqqqqqqqqqqqqqq",
"qqqqqqqqqqqqqqqqqqqqqqqq2<<<<<<122222222423442444455555666667667867666666665555554444443,%@@@@&<2<<<<<<3qqqqqqqqqqqqqqqqqqqqqqqq",
"qqqqqqqqqqqqqqqqqqqqqqq<,<<<<<124222222233334444455555665666667766676666665555554544344341-%@++%:<<<<<<<5qqqqqqqqqqqqqqqqqqqqqqq",
"qqqqqqqqqqqqqqqqqqqqq5<,,<<<<22323222222223344244455555556666675666666666675555544443433143,&++@@;<<<<<<<3qqqqqqqqqqqqqqqqqqqqqq",
"qqqqqqqqqqqqqqqqqqqq6<,,<<<<22332222232224244444454555555757555746464666656555554443333333111-@+@+&,<<<,<<2qqqqqqqqqqqqqqqqqqqqq",
"qqqqqqqqqqqqqqqqqqqq<,,,,,<135332222<22222424244444455555555567576666664565554444344434131231<>%++o%>,<<,<<2qqqqqqqqqqqqqqqqqqqq",
"qqqqqqqqqqqqqqqqqqq,>,,,,<244432<22222222424434234455555557556666666676655555344444343331322221,%o@o$><,,,,,5qqqqqqqqqqqqqqqqqqq",
"qqqqqqqqqqqqqqqqqq<>>,>,,244332<2<<<3<2222242444444444555556566566664464555455444444344132222211,&@+o$><,,,,,2qqqqqqqqqqqqqqqqqq",
"qqqqqqqqqqqqqqqqq,>>>>,,2554211111111222131333333444455455555566656555555554444444443334141111312,*+oo@:<,,,,,qqqqqqqqqqqqqqqqqq",
"qqqqqqqqqqqqqqqq1>:>>,,2545211<,,11412<2313333344343445444555555465555555554444414333311313111111<,*+oo@:<,>,><qqqqqqqqqqqqqqqqq",
"qqqqqqqqqqqqqqq1>:>>,,155521,1,1114q212213331333343444445445545555554544444444343433333131131111<<<,*ooo@;,>>>,<qqqqqqqqqqqqqqqq",
"qqqqqqqqqqqqqqq>:>:>>155522<,,1<11qq511231113334334444444545554444555544554443444341331313111111<<<1,%ooX&:,>>>>1qqqqqqqqqqqqqqq",
"qqqqqqqqqqqqqq,::::,144551,,1,<<11qq51111331314133333434444435454554544444434343331413312211311<<<<<<,%oXO&>,:>>>qqqqqqqqqqqqqqq",
"qqqqqqqqqqqqq<:::>:,46541,,,,1,<14qqq3131113133333333444344455454444444444434433333341133111111<<<1<<,>$OXO=>>>>:,qqqqqqqqqqqqqq",
"qqqqqqqqqqqqq>::::,36652>,,,,11,2qqqq511311131333333343334444353444444444434333333341311113111<<<<<<<,,:@XXo;:>:::,qqqqqqqqqqqqq",
"qqqqqqqqqqqq,;::::24552,>,,,,,<<5qqqq5111131131313333333434444344444444444433343131131311111<1<<<<<<,,,,-+XX@;>>::>qqqqqqqqqqqqq",
"qqqqqqqqqqq<:;:::,5654,,,,,,,,<2qqqqqq21222222222333333333333334444433333333333333232222111<1<<<<<,<,,,,,&XX.%:::::,qqqqqqqqqqqq",
"qqqqqqqqqqq:;;;::3665<>>>>>,,,,2qqqqqq2111121222322333333333333333343433333333131<3<21211111,1<<<<<<<,,>,;%..X*>::::1qqqqqqqqqqq",
"qqqqqqqqqq,;;;;:16661>>>>,,,,,<qqqqqqq5111123<222223133333333333333343333333313232131111111<1<<<<<,,,,,,,,;o.X+-:;;:,qqqqqqqqqqq",
"qqqqqqqqqq;;;;;,4663>>>>>>>,,,1qqqqqqqq21111<2<2223233<33333333343334333333313223131311111<<<<<1<<,<,,,>:,,&X.X%:::;;<qqqqqqqqqq",
"qqqqqqqqq:-;;;;2665,:>>>,>,,,,3qqqqqqqq3<2<23<3<1222131333333333333131331331222212<21111<1<<<1,,<,,,,>,,,:,:@.Xo-:;;;:qqqqqqqqqq",
"qqqqqqqqq;--;;,5663::::>>>>,>,qqqqqqqqq5<<<<<2<311223<331131311313333231222222223<221111<<<<<<,1,,,,>,,:>,::*XX.$-;;;;,qqqqqqqqq",
"qqqqqqqq,--;;;3664>::>:>>>,>,2qqqqqqqqqq2<2<<3<32222<33<31331313231213132222222<23<21111<<1,,<<<,,,,>,>,,::>;%X.o*;;-->qqqqqqqqq",
"qqqqqqqq:---->6662::::>:>>>>,qqqqqqqqqqq5<<<<<<<2<2<3<3<131331312132313132223<23<<2<11,,1<<1<<<,,,,,,,,::,>::-o..@-:;-:qqqqqqqqq",
"qqqqqqq,-----2665:;::::>>>>>2qqqqqqqqqqq5<<<111<11113113111312232231333<1133<33<2<1<<1<<,,1,,1,<,,,,,>,>>>>::;$...*--;->qqqqqqqq",
"qqqqqqq>----:6772;;:::::>>>>5qqqqqqqqqqqq<<<<<<11<111113331232112113<11331<1<<113<<2<<<<1,,1<,,,,,,>>>>>:::;::*o. $;;--;qqqqqqqq",
"qqqqqqq-----<775,;;;::::::>,qqqqqqqqqqqqq2<<<<<<11<11111<12112221131311321113<<1<<<<<1<<,11,,,,,,>>>>,>>>::::::@..o-----,qqqqqqq",
"qqqqqq,*--*;5763;;;;:;:::>>2qqqqqqqqqqqqqq<<<1<<1,11111111211111211111111111<<1<,<<<<<<<1,,1,,,,,,>,>>:::::::;;&...%---*>qqqqqqq",
"qqqqqq;***-,676<;;;;;:::;;,qqqqqqqqqqqqqqq1<1<<<<1<<,111<111111111111111,11111,11,1,<<,<,,,,,,,,>>>>>>:>:::;:;;;+ .+----;qqqqqqq",
"qqqqqq-*---<775;-;;;;;:::><qqqqqqqqqqqqqqq2<<<<<<<<<11,<1<<1<1111111<<1111,1,,1<11,1<<<<,1,,,>,,>,>>>>>>:::;;:;;%  .&----,qqqqqq",
"qqqqq>*&**;586<;-;;;;:;::>qqqqqqqqqqqqqqqqq<<<<<1,<1<1<<1<<<1<<1111,1,,1,111111,,1,1,<,,,,,,>,,>>,>>;>:::::::;;;=.  $---=:qqqqqq",
"qqqqq;&&**,676,---;;;;:;;,qqqqqqqqqqqqqqqqq1><<<,1<,1,<<<<<1<<<<<<11,11,11,,1,1,1,1,1<,,,,>,>,>>>>>:>:;:::;;;;;--+  o*--*-qqqqqq",
"qqqqq-&&&-<775;---;;-;;;><qqqqqqqqqqqqqqqqq3,,,<<,,,1,1<<1<<<<<<<<<1<<<<<<<<<<<,1,,,,,,,,,>>>>>>>>:::>:;::;;;;;;-@  .=-&-=qqqqqq",
"qqqqq*&&&-5772-----;;;;;>qqqqqqqqq2qqqqqqqq5,,,,<,1,,1<,<1<<1<<<<<<<<<31,<<<<<<<,1,1,,,,,>,,>>>>>:>>:::::;:;;;--;%. .%-=&=:qqqqq",
"qqqq:&&&&-587,------;;;;<qqqqqqqq2,3qqqqqqqq<,,,,,<1,1,1<,<<,<<<<<<<<1q3<<<<<<,,,,,,,,>>>,>>>>>>:>::;:::;;;;-;---*X  +**&&;qqqqq",
"qqqq;&&&&:787;-----;--;:qqqqqqqqq<:<qqqqqqqq1,,,,,,,,,,,<,<<,1,<<<<<<3qq<<<,,,<,,,,,,,,,>,>>>>>>>:::::::;;:;--;--*+  +=%&&-qqqqq",
"qqqq-%*&&<885;*-------;>qqqqqqqqq>;,qqqqqqqqq,,,>>,,,,,1,,<,,<<,,<,<<qqq5<<,,,,,,,>>,,,>>,>:>>>:::::;:;;;-;;;-----@  X==&**qqqqq",
"qqqq*%&&&2883***------:qqqqqqqqq<::>qqqqqqqqq,>>,,>,,,,,,,,,,,,<<><,1qqqq<,,,,,,,>,,>>>>>>>>>:::::::>;;;;;--------%  .%=&%*>qqqq",
"qqqq*%%**388<***------>qqqqqqqqq>:::<qqqqqqqq2,>,,,>,>,,,,,,,,,,>,,,3qqqq5,,,,,,,,>>>>>>>>:>::>:::;:;:;;;;-;------%. .$**%*>qqqq",
"qqq>&&&%*588,&**-----;<qqqqqqqq<:;:;>qqqqqqqqq,>>>,>,,,>,,>,,,,,,,,<qqqqqq<>>>,:>,>,>>>>:>>:::::;::;;;-;;------*-*%X  @%*&%;qqqq",
"qqq;&%%%;687:****----;qqqqqqqqq>;::::qqqqqqqqq,>>>,>,>>,,,,>,>>>,,,1qqqqqqq,,,>>>>>>>>>>>:::;::::;;;;;--;-----*--*=O  @&%*%;qqqq",
"qqq;&%&%:786-&&***-*-,qqqqqqqq2::;;:;<qqqqqqqq2>>>>>>>,>>>>>,,,>>>,qqqqqqqq1>>>>>>>>:::::::::::;;:;;;;;;--------**&O  +&*%%-qqqq",
"qqq;&%%&:786-*&&****-qqqqqqqqq>;;;;:;,qqqqqqqqq,:>>>>>>>>>,>>>>,>,,qqqqqqqqq,:>>>>:>>:>::::::;;:;;;;-;---------**==O  X%%&%&qqqq",
"qqq&%%&&>875*&&&&&**>qqqqqqqqq;;;;;;;:2qqqqqqqq,:>:>>>>>>>>>>>>>>>2qqqqqqqqq1>>::>>:::>>>>>:>>>>>:::::;;;;;:;--;--=#X.+*-**;qqqq",
"qqq&%&%%>885*&&&&&==,qqqqqqqq,-;-:;;:;,qqqqqqqq1:>>>>:>>>>>>::,::>qqqqqqqqqqq,>::::::>qqqqqqqqqqqqqqqqqqqqqqqqqqqqqqqqqqqqqqqqqq",
"qqq-%%%%>883*&&&&&&;qqqqqqqqq;-;;--;;;>qqqqqqqqq>:::>::::>>:>:::>1qqqqqqqqqqq2>>:::::2qqqqqqqqqqqqqqqqqqqqqqqqqqqqqqqqqqqqqqqqqq",
"qqq-#%%%<983&&&&&%*>qqqqqqqq<----;-;;;;1qqqqqqqq>:::;:::;>;>::>>>3qqqqqqqqqqqq,;::::,qqqqqqqqqqqqqqqqqqqqqqqqqqqqqqqqqqqqqqqqqqq",
"qqq-$%%%<883&&&&&&-qqqqqqqqq;-----;--;;>qqqqqqqq,:::::::>;;>::::,qqqqqqqqqqqqqq::::,qqqqqqqqqqqqqqqqqqqqqqqqqqqqqqqqqqqqqqqqqqqq",
"qqq-%%%%<883*%%&&&;qqqqqqqq<---------;-;qqqqqqqqq::::::::::::;::1qqqqqqqqqqqqqq<:::qqqqqqqqqqqqqqqqqqqqqqqqqqqqqqqqqqqqqqqqqqqqq",
"qqq=$%#%<883&%*%%*qqqqqqqqq>-*---------;,qqqqqqqq>;;;:::;:::::::qqqqqqqqqqqqqqqq>:,qqqqqqqqqqqqqqqqqqqqqqqqqqqqqqqqqqqqqqqqqqqqq",
"qqq*%@%$,784*%&&&-qqqqqqqqq-*----;------,qqqqqqqq<;:;;;;;:;::::,qqqqqqqqqqqqqqqq,,qqqqqqqqqqqqqqqqqqqqqqqqqqqqqqqqqqqqqqqqqqqqqq",
"qqq%%%$$,875&%&%&>qqqqqqqq>****---------;qqqqqqqqq:;;;;;:;;:;;:1qqqqqqqqqqqqqqqqqqqqqqqqqqqqqqqqqqqqqqqqqqqqqqqqqqqqqqqqqqqqqqqq",
"qqq=$$$@;885&%%%-qqqqqqqqq-*=****-*-----;1qqqqqqqq,;;;;;;;;;;;>qqqqqqqqqqqqqqqqqqqqqqqqqqq,:>:;::;;;;;;;-;-;----;;-$oo@*==**qqqq",
"qqq;$$$$;885-%%&;qqqqqqqq,**==****-*----->qqqqqqqq<--;-;;;;;;;<qqqqqqqq<<qqqqqqqqqqqqqqqqq-*--*-****&**%&&&&&&&&*%&o .O$$%$$qqqq",
"qqq=$$$$;686-%%*qqqqqqqqq-%**%%*****-=---;qqqqqqqqq;-;---;;-;;qqqqqqqqq::qqqqqqqqqqqqqqqq:----*****==&%&&&%&&&&%%&%X  o$#%$*qqqq",
"qqq-$$$$*686;$%-qqqqqqqqq*&&%*******-&----,qqqqqqqq;--;;--;-->qqqqqqqqq;->qqqqqqqqqqqqqq>----***==&*&&&&&&&&&%%%%%$o  +$#$$&qqqq",
"qqqq@##@&488>$%>qqqqqqqq:%=&&&*&&&&&******:qqqqqqqq,;-------;<qqqqqqqq:--;qqqqqqqqqqqqq,--*=****==&&&&&&&&%&%&$&%%%.  +##$$*qqqq",
"qqqq$##@$388,%*qqqqqqqqq&&&&&&%*&**&*=****;qqqqqqqqq;-------;qqqqqqqqq;---:qqqqqqqqqqqq-*-*=***&%&&&&&&%%&&%&&&$%%O...+#$$$*qqqq",
"qqqq%++$@<873%:qqqqqqqq:%&&&&&&%&&&&&===***>qqqqqqqq;&------>qqqqqqqq<----;,qqqqqqqqqq:***&&%*&&&&&&&&%*&&%%%%%%%%+ ..O%$$$:qqqq",
"qqqq%+$+$>883*qqqqqqqqq-%%&%%&&*&&&&&&&&&=&:qqqqqqqq,-------qqqqqqqqq:*----;qqqqqqqqq,**&***=%&&&%&&*%&%%&%%%%%%%%O  .$$$$$qqqqq",
"qqqq=+@@@-785,qqqqqqqq:&%&%&=%&&&&&&&&&&&&&;qqqqqqqqq----*-;qqqqqqqqq-------,qqqqqqqq***&&&&&&&&&&&&%%%&%&$&$&%%%%.  O$$@#%qqqqq",
"qqqq*$@+@%578qqqqqqqqq-%%&%%%&%%&&&&&&&&&&&&,qqqqqqqq:&-*-*>qqqqqqqq:---&-&-;qqqqqqq;*%&&&&&*%&%&&&%%&%&%%&%$$$$%@. .OO%#@*qqqqq",
"qqqqq@+++$288qqqqqqqqq%%%%%&%&&&&%%&&&&%&&&&;qqqqqqqq,-&*=-qqqqqqqqq;==-====-:qqqqq:&&&&&%&&*&*%%&%&&%&%%%&%%$$%%O.  O$+++*qqqqq",
"qqqqq%+@@@,89qqqqqqqq-%%%%%%%%&%%&%&&&&&&&&&-qqqqqqqqq-&*&;qqqqqqqq,-&=&=&&&&-qqqq,*&&&&&&*%%*%*&%&%&%$%%%$$%$%$#O. .+$$+$qqqqqq",
"qqqqq*@@@o-7qqqqqqqqq*%$%%%%%%%%&&%&&%&&&&&&&>qqqqqqqq-&&*qqqqqqqqq;&&&*&&&&&&:qqq*&&&&&&&&&%&&%%%%%%%%%%%%$$$$$%X  o+@++%qqqqqq",
"qqqqq;@oo$%5qqqqqqqq:$$%$%%%+%%%%%%%%%%&%&&&&-qqqqqqqq:&&;qqqqqqqqq*&&&&&&&&&&*qq;&*&&&%%&&%%%%&%%%%%%%%%##$$$$$OO .o@++@%qqqqqq",
"qqqqqq++$+$qqqqqqqqq&$$$%%@#%%%%&$&%%&&%%&%&&*qqqqqqqqq*&>qqqqqqqq;&%*%*&&&&&&&;>&&%&&&%&%&%&&%%%%%%%%%#%%$$$$$$O. .o@+@@:qqqqqq",
"qqqqqq$@@+&qqqqqqqq>$$$$%###%%%%$%%%%&%%%&&%&&>qqqqqqqq;*qqqqqqqqq-&*%*%&&&&&&&&&&%&%%%&&%%&%%%%%%%%%%%#%O$$$$$+X. .@+@+$qqqqqqq",
"qqqqqq*@@$qqqqqqqqq&@@+$+#@%#%+%%%#%%%%%%&&%%&*qqqqqqqq>;qqqqqqqq:&&&&&%%&&%&&%&$&&%%%&%%%%%%%%+%%%+%@#@%$$$$++@O  X@@+@&qqqqqqq",
"qqqqqqq$o$qqqqqqqqq&@@$$%@%#%%%%%%&#%%%&$%%&&#*qqqqqqqqq2qqqqqqqq-&&%&&&*%&%%%&%&&%&*%&%%%%%%%%%%%%%%+@#$$$+$$$o. .++@++-qqqqqqq",
"qqqqqqq&+&qqqqqqqq*+@@$@+%@%+%#%$$#%#%%%&$%%%%&>qqqqqqqqqqqqqqqqq*&%%&%&*%&%%&&&&$&%%%%%%%%%%%%%%%%%%%%@%@$+$++...O$@++$qqqqqqqq",
"qqqqqqqq$qqqqqqqqq%+@@+$+#@@+%@%$$##%#%#$&%%%%%-qqqqqqqqqqqqqqqq;&%%%%&%%%%&%%%%$&%&%%%%%%%+%%%%++%++%@@@%O$++oo..+++++&qqqqqqqq",
"qqqqqqqq>qqqqqqqq,$+@+$+%+%+%%@$@%@#%+%%$%#&#%%&qqqqqqqqqqqqqqqq*%%%%%%&&%%%%%%%&&$$%%%@%###%+%#%++%+%%++@++++o .X++++$qqqqqqqqq",
"qqqqqqqqqqqqqqqqq4&++@+++++%++%@@@%#%%+%$$###%$%;qqqqqqqqqqqqqq:&%%%%%%%%%%%#%#%$$%%%#%%##%%%@%@%%%+%+++o@$+++.o.+++O+&qqqqqqqqq",
"qqqqqqqqqqqqqqqqq6,@+++++++@+%@@@%+#%++%%$$$##$$*qqqqqqqqqqqqqq;%%%%%%%%%%%%%%%#%%$%##$$@#+%%@%%++%%+%%+@@+@+o..X++oo+qqqqqqqqqq",
"qqqqqqqqqqqqqqqq864&+$$+@++@++@@++%#+%%#$$%$##%$%qqqqqqqqqqqqqq%%%%%%@%%%$%%%%%%%$$$$%$$##+%%++++%++++++@o@@o..o+OO+o%qqqqqqqqqq",
"qqqqqqqqqqqqqqqq4663%+++++++++@@%%++##++$$%@$$##%-qqqqqqqqqqqq;%#%$$%%%%%%%@##%#@%@@$$$$@%%%++%++%+%++++++@oo..o++Oo+qqqqqqqqqqq",
"qqqqqqqqqqqqqqq*:464;+++@@@+++@++++%+@%%@%O%$$$$@&qqqqqqqqqqqq*$%#$$#$##%+@%##@@@@%%@%@@%++%+%+%+++++%+++@@X..ooXOoo%qqqqqqqqqqq",
"qqqqqqqqqqqqqqq$+1664*+++++++%++++++@+@@@+@@+%$$$%qqqqqqqqqqqq%$@@@$#$$$@%%+@%@%$@@@@@@@@#+++++++%++%+++++ooo.oo+oO@qqqqqqqqqqqq",
"qqqqqqqqqqqqqq-oO&4443%++++@+++%++%+@+++@@@@@%O$@@;qqqqqqqqqq*$$#%%#$$$$%+$$@@@@@%@@@@@@+++%+%+++++%+++++oo..ooooOo%qqqqqqqqqqqq",
"qqqqqqqqqqqqqq@XoX;546,@+++++++@++@@+@+%++$++@@@+$*qqqqqqqqqq&%@%+%++$$$+%+%@@@@+@@@@@++$++++++@%+++++++OOoX.Ooooo+qqqqqqqqqqqqq",
"qqqqqqqqqqqqqq++oo@,744:OO+o+O++++++@++++++$$++$$+%qqqqqqqqq-$@@+%+%%+%+++%+%@@@@@@@+++++++@@+@++++++++O+Oo.oooooo-qqqqqqqqqqqqq",
"qqqqqqqqqqqqq:+Xooo@3464-Oo++OO++++++@+@+++$$++@+%+-qqqqqqqq&@@@%++++%+$%++%++@++@@@$++@+$@++@@++++O+OOOOoooooooo%qqqqqqqqqqqqqq",
"qqqqqqqqqqqqqq%XoOOo&4443&ooO+O+o+++++++$$+++$+++++%qqqqqqqq$+@+++%+++$$++$+@++++++@++@@++@@++++O+O+O++OOO.ooooo@qqqqqqqqqqqqqqq",
"qqqqqqqqqqqqqqq@.OOOo*3443%oo+oo+o+o+++++++++++@+$+@qqqqqqq*@@+@%+++$++++%++++@@@++++@@++$o@+o++o++ooooooXOoXoo@qqqqqqqqqqqqqqqq",
"qqqqqqqqqqqqqqqqoooOOO;3443%Ooooo+O+O+++++++++++$+++-qqqqqq%++++++++++$+++@+@+@++@+@+++++o@o+ooo+oooooooOOOOoXo%qqqqqqqqqqqqqqqq",
"qqqqqqqqqqqqqqqq-oo.O.O:4443%oooooooOoo++oo+++++++@+&qqqqq*@++@@+%%+@@+$+++@++++++++++++o+oo+oooooOo+oooXOXXXX%qqqqqqqqqqqqqqqqq",
"qqqqqqqqqqqqqqqqq$o.ooXo>4442%oooO+oooo++++o++oo++++@qqqqq%++@++++++++++++++++++++o+o+o+oo@ooooooo++oooooOOoX@qqqqqqqqqqqqqqqqqq",
"qqqqqqqqqqqqqqqqqq%X..oXo:4433%oooooooooo+oo+o++o+o++-qqqq$++++++++o+++++++++O+o+o+o++oooooooooooo++oooooooo@qqqqqqqqqqqqqqqqqqq",
"qqqqqqqqqqqqqqqqqqq@o..X.o;3433-ooooooo.ooooooooooooo%qqq%o++oOO+++oo+++oo+oO+o++ooooooo+ooooooo+++ooooo..X+qqqqqqqqqqqqqqqqqqqq",
"qqqqqqqqqqqqqqqqqqqqoo....o-3433:+OXoooOooooooooooo+o+qqq+o+o+o+oo+o+oOOo++o++ooooooooooOOOOooo++++ooo.o..+:qqqqqqqqqqqqqqqqqqqq",
"qqqqqqqqqqqqqqqqqqqqqo.X.o.o%1333,@XOoO+Oooooooo+oooo+*q*+ooo+oo+oo+O+O+o+o+OOooooooooooOOOXoo@@@+OO.o...@:qqqqqqqqqqqqqqqqqqqqq",
"qqqqqqqqqqqqqqqqqqqqqq$......%<3331*+..oOooXOOOOoooooo%q$ooXooooo+ooooo+oooooooooooOooooO+XX@++@++.o....o>qqqqqqqqqqqqqqqqqqqqqq",
"qqqqqqqqqqqqqqqqqqqqqqq%o..oo.+>2322:%ooXXXXXXOOooOOooo*+oooooo+ooooooo.oooooOOOOoXXooooXX+@@@+@o..o.oo+qqqqqqqqqqqqqqqqqqqqqqqq",
"qqqqqqqqqqqqqqqqqqqqqqqq$..o.ooo-22221*+.XXXXXoooooOoOo+oooXoooXoo.+oo+.ooooOOooOXXXXXoo+@@@@@X.X.....+qqqqqqqqqqqqqqqqqqqqqqqqq",
"qqqqqqqqqqqqqqqqqqqqqqqqq%......X%>2222,*+...o.o.oooXXOOooooooooooo+.+.+OOOOOOoXXX.OOOO+$$@@@oXXX..Xo$qqqqqqqqqqqqqqqqqqqqqqqqqq",
"qqqqqqqqqqqqqqqqqqqqqqqqqq-o..X...+-11121>&+oo ..oooooooXXXoXXXX.oOoo.oooooooo.oX XXo@%%%%O+O.XX...X%qqqqqqqqqqqqqqqqqqqqqqqqqqq",
"qqqqqqqqqqqqqqqqqqqqqqqqqqqq@  .....@;12111>*@OoX...o..X.XXoXXXX.oo.o..o.o.o....X+@@%$%#+$+OX.....o*qqqqqqqqqqqqqqqqqqqqqqqqqqqq",
"qqqqqqqqqqqqqqqqqqqqqqqqqqqqq%o... X.X@;,11,<,;=$X.....XXXo.X.XX.o..oo.......oo+$%%%%%$$OX.X... X@qqqqqqqqqqqqqqqqqqqqqqqqqqqqqq",
"qqqqqqqqqqqqqqqqqqqqqqqqqqqqqqq@. .....O$;,1<<<<,:*$@o.........X..o.....ooo++%%%%=%%%@+........+$qqqqqqqqqqqqqqqqqqqqqqqqqqqqqqq",
"qqqqqqqqqqqqqqqqqqqqqqqqqqqqqqqq%X.......X+=:,1<,,,,::-*%$@o+OOO+ooo+++%%%%***%*&%%#+XX ......%qqqqqqqqqqqqqqqqqqqqqqqqqqqqqqqqq",
"qqqqqqqqqqqqqqqqqqqqqqqqqqqqqqqqqq@.    . ..+$=:,,,,,>,>>>:;;-;=**-------****%%%#+O. . X.. X+qqqqqqqqqqqqqqqqqqqqqqqqqqqqqqqqqqq",
"qqqqqqqqqqqqqqqqqqqqqqqqqqqqqqqqqqqq+.    . ...X+&;::>>>>:>:>;;:;;-------**%%++.... ..  .X+-qqqqqqqqqqqqqqqqqqqqqqqqqqqqqqqqqqqq",
"qqqqqqqqqqqqqqqqqqqqqqqqqqqqqqqqqqqqqq@X        . .o@$&--;;;;;;;;---**%%%++o.... .     .O%qqqqqqqqqqqqqqqqqqqqqqqqqqqqqqqqqqqqqq",
"qqqqqqqqqqqqqqqqqqqqqqqqqqqqqqqqqqqqqqqq@+            ..XXXO++++@o+Xoo.. .  .    .   X@qqqqqqqqqqqqqqqqqqqqqqqqqqqqqqqqqqqqqqqqq",
"qqqqqqqqqqqqqqqqqqqqqqqqqqqqqqqqqqqqqqqqqq$+X..                       .    .      Xo%qqqqqqqqqqqqqqqqqqqqqqqqqqqqqqqqqqqqqqqqqqq",
"qqqqqqqqqqqqqqqqqqqqqqqqqqqqqqqqqqqqqqqqqqqqq@+X..                           ..O+$qqqqqqqqqqqqqqqqqqqqqqqqqqqqqqqqqqqqqqqqqqqqqq",
"qqqqqqqqqqqqqqqqqqqqqqqqqqqqqqqqqqqqqqqqqqqqqqqqq$+o. ..         .     . ...o+*qqqqqqqqqqqqqqqqqqqqqqqqqqqqqqqqqqqqqqqqqqqqqqqqq",
"qqqqqqqqqqqqqqqqqqqqqqqqqqqqqqqqqqqqqqqqqqqqqqqqqqqqqq##X+..XX.X.Oo..+o+%&qqqqqqqqqqqqqqqqqqqqqqqqqqqqqqqqqqqqqqqqqqqqqqqqqqqqqq",
"qqqqqqqqqqqqqqqqqqqqqqqqqqqqqqqqqqqqqqqqqqqqqqqqqqqqqqqqqqqqqqqqqqqqqqqqqqqqqqqqqqqqqqqqqqqqqqqqqqqqqqqqqqqqqqqqqqqqqqqqqqqqqqqq",
"qqqqqqqqqqqqqqqqqqqqqqqqqqqqqqqqqqqqqqqqqqqqqqqqqqqqqqqqqqqqqqqqqqqqqqqqqqqqqqqqqqqqqqqqqqqqqqqqqqqqqqqqqqqqqqqqqqqqqqqqqqqqqqqq",
"qqqqqqqqqqqqqqqqqqqqqqqqqqqqqqqqqqqqqqqqqqqqqqqqqqqqqqqqqqqqqqqqqqqqqqqqqqqqqqqqqqqqqqqqqqqqqqqqqqqqqqqqqqqqqqqqqqqqqqqqqqqqqqqq"
};
