/* XPM */
static char *_138b62d48ba4241967f5f8e45573b94[] = {
/* columns rows colors chars-per-pixel */
"64 64 26 1 ",
"  c #8A9197",
". c #8D949B",
"X c #90979E",
"o c #92989F",
"O c #9297A0",
"+ c #959CA2",
"@ c #999FA6",
"# c #9AA0A7",
"$ c #9DA3AA",
"% c #A1A6AD",
"& c #A3A8AF",
"* c #A6ABB1",
"= c #A9AEB4",
"- c #ABB0B6",
"; c #AEB3B9",
": c #B1B6BC",
"> c #B4B9BE",
", c #B6BBC1",
"< c #B9BEC3",
"1 c #BCC1C6",
"2 c #BEC3C9",
"3 c #C1C6CB",
"4 c #C4C9CE",
"5 c #C6CBD0",
"6 c #C8CDD1",
"7 c None",
/* pixels */
"7777777777777777777777777777777777777777777777777777777777777777",
"7777777777777777777777777776555546457777777777777777777777777777",
"7777777777777777777777733334455554444344577777777777777777777777",
"7777777777777777777733223343332333443443322777777777777777777777",
"77777777777777777732<3<32<,,:;;---=-;;,1222122777777777777777777",
"7777777777777777<<<<1<<,,,:,,,,,,>:;**%%*,<11<177777777777777777",
"777777777777777,,<<<<>>,,<332555555421,;&$%-,<<<<777777777777777",
"7777777777777<,,<<<,<<<22234355555544443<>*$$-,<<<77777777777777",
"777777777777,>>,<<<<<332<344444555544433222,&@$;,>,<777777777777",
"77777777777>>>,<<<<<<<<23333434454344432222<<-$@=>>><77777777777",
"7777777777>::,11<<<<<<323333443444444232222<<<:$+%:>,,7777777777",
"777777777:::,11<,,<<<3<33<333444442433322221<<<,%+$:::,777777777",
"77777777:;:>11<>,,<<<<11<333333324242322<22<<<,,,%O$;::777777777",
"77777777;;:13,>>,3<,<<113<3<2232224222212<1<<<,>>>&O$:;:77777777",
"7777777;-;13<:>><71<<<11121122222322221221<<<<,,>>>$O%;-:7777777",
"777777;=;<3<:::>777,<,<<1<12222222222211<<<<,,,,>>>;#O&;;:777777",
"777777=->31::::,777<,<<<<11111221311111<<<<<,,>>>>::=oo=--777777",
"77777==-13>;;;:,777<,<<,<<<111<2111111<<<<<,,>,>>>:;;*X$=-:77777",
"77777*=,4<-;:::77777>,,<,<<<<1<21<<1<<<<<>,,,>>:>::;;-@X*==77777",
"7777=*-31;-;;;>77777<>>,<,<<<<<<<<<<<<<<<<,>>>>>:::;--*X@*=-7777",
"7777**>5>=--;;777777<>>,,,,,,<,<<<<<<<,,>,>>>:>>:;;;;--@.%*=7777",
"777-**33==---:7777777>>>,,,,,,<<<<<,,,>,>>>>>>:::;;;--;%.@**7777",
"777**;4<===-->7777777>>>,::,,,,,,,,,,,>>>>>>::::;;;;--=*oX**=777",
"777%%<4-====;77777777<>>,:,,:,:,:,>>>>,>>>>:::;;:;---===# $**777",
"77=%*23=**==:777777777::>>>>,>,,,:,,>,:>:::::;;;;----===%.+&*777",
"77*%=4<***==77777>7777>::::>:,:::,,7>:::::::;:;;----==**%.o&%=77",
"77%$-6>%***-7777:;7777,;::::::::::<7<:::::;;;;;;---===***+.$%*77",
"77%%:6-****77777--77777:;;::::::::777:::;:;;;;=----=*****+ $%*77",
"77$%>4=%**=7777:=-:7777:;;;;::;:;>777,;;;;-;;---====****&# @$%77",
"77%%<4*%%%-7777-==-7777>;;;;;;:;:77777:;;;-;-----===*==**$.@&*77",
"7*$$13*%%*7777;*===:7777;;;;;;;;;777777;--;777777777777777777777",
"7-$%13%%%=7777=**===7777;====--->777777;=;7777777777777777777777",
"7=#$13&$%77777****==7777:-==----77777777;,7777777777777777777777",
"77##13&%*7777-%*****:7777-=====;77777777777777777777777777777777",
"77$$<3&$77777*%*****=7777-====-77777777777777==*=**&&&%%%$.@$$77",
"77@$>4*$7777*%%%%%%*=7777-*=*==7777;-7777777-*%*%%%%%%%%%+ +$$77",
"77##;5=%7777%%%%%%***=7777=***;7777=*7777777**%%%%%%%$%$$O.+#$77",
"77@@=5:77777%%%%%%%%%*7777****77777**=77777*%%%%%%%%%$$$$..##%77",
"77#@%437777%$$$%%%%%%*7777-***7777=***7777*%%%%%$%%%%$$$#..+@%77",
"77$+#177777$$$%$$%%%%%=7777*%-7777*&%%*77-%%%%%%%$$$$$@#+.O#+777",
"777@+;7777%#$$$$$$$%%%&7777**7777=%%%%%=7%%%%%$%$$$$$###O.O##777",
"777#@%7777$#$$$$$$%$$%%7777**7777%%%%%%&&%%$$$%$$$#$###+..+@$777",
"777#@7777%+#@$$$$$$$$%%*777777777%%%%%$$%%$$$$$$$$#####+.X++7777",
"7777$7777##@@@@@$@$$$$$%77777777*$%$$%$$$$$$$$$$$####++o.++#7777",
"777777777#++@@#####$$$$$77777777%$$$$$$$$$##$$@##@@@@@oX.++$7777",
"777777775;@++@+@@###@@##&777777*$$$$#$$$####@@@@@@@++@oX+++77777",
"7777777712$++++@@+#+@@##$777777%###$$$@$####@@@@@@+++O.oO+$77777",
"7777777#%2,#+++++@@+@@@@#777777#####@@@@###@@@@++++@+XXoo+777777",
"7777777+o-2;++++++@@@+@+@%7777%@##@@@##@+##+@++++++OOXoX+7777777",
"7777777+X+,2*oo++++++@@+@#7777#@@+@+++@++++@+@++++++XoXO#7777777",
"77777777O.#,1&oo+o+++++++#777%@@++@@+@@+#++++++++oXXoXo+77777777",
"77777777#XX#11&ooooo+O++++$77#+++++++++++o++ooooXX+XXX+777777777",
"777777777+.X@,1*ooooooo++O#77+++++++O+Oo+ooooOoo++oX.+7777777777",
"7777777777o..+:1=+ooooXooo+7#+oo+o+o+O+ooooooXO++XXXo$7777777777",
"77777777777+..+-1:$oooXXooX@+XooooooooooooooO+++oX.X777777777777",
"777777777777+X.X%,,=+XXXooO+oooooooooOOoXXo+@#+XX.o7777777777777",
"77777777777777o..+-,>*@XX.X..oXXoXoXXX.XX++##+OXXO77777777777777",
"777777777777777O...#->>-%#Ooo...X..XXX+@$$$+O...o777777777777777",
"77777777777777777o  .+%;::-=*$$$##$$%%%$#+.. .O77777777777777777",
"777777777777777777Oo  ..+$%=====**&%$@+X.. .O7777777777777777777",
"777777777777777777777..    ..oooXXX.    ..o777777777777777777777",
"77777777777777777777777+o..        .  X+777777777777777777777777",
"77777777777777777777777777777o++o++77777777777777777777777777777",
"7777777777777777777777777777777777777777777777777777777777777777"
};
