/* XPM */
static char *_e537a8b8fcc494790d9cd57cc30448c[] = {
/* columns rows colors chars-per-pixel */
"32 32 180 2 ",
"   c #8D949B",
".  c #8E959C",
"X  c #8F959C",
"o  c #90959D",
"O  c #90969D",
"+  c #90979D",
"@  c #90969E",
"#  c #90979E",
"$  c #91979E",
"%  c #91979F",
"&  c #91989E",
"*  c #91989F",
"=  c #91999F",
"-  c #92989E",
";  c #92989F",
":  c #92999F",
">  c #9298A0",
",  c #9299A0",
"<  c #9399A0",
"1  c #9299A1",
"2  c #9399A1",
"3  c #939AA0",
"4  c #939AA1",
"5  c #949AA1",
"6  c #949BA1",
"7  c #949AA2",
"8  c #949BA2",
"9  c #959BA2",
"0  c #959BA3",
"q  c #959CA2",
"w  c #959CA3",
"e  c #969CA3",
"r  c #969DA3",
"t  c #979DA3",
"y  c #979DA4",
"u  c #979EA4",
"i  c #979EA5",
"p  c #989EA4",
"a  c #989EA5",
"s  c #989FA5",
"d  c #9A9FA5",
"f  c #989EA6",
"g  c #989FA6",
"h  c #999FA6",
"j  c #999FA7",
"k  c #9A9FA7",
"l  c #99A0A6",
"z  c #9AA0A6",
"x  c #9AA0A7",
"c  c #9BA0A7",
"v  c #9BA1A7",
"b  c #9AA0A8",
"n  c #9AA1A8",
"m  c #9BA1A8",
"M  c #9BA1A9",
"N  c #9BA2A8",
"B  c #9BA2A9",
"V  c #9CA1A8",
"C  c #9CA2A8",
"Z  c #9CA2A9",
"A  c #9DA2A9",
"S  c #9CA3A9",
"D  c #9DA3A9",
"F  c #9EA3A9",
"G  c #9CA2AA",
"H  c #9DA3AA",
"J  c #9EA3AA",
"K  c #9EA4AA",
"L  c #9FA4AA",
"P  c #9FA4AB",
"I  c #9FA5AB",
"U  c #9FA4AC",
"Y  c #9FA5AC",
"T  c #9FA5AD",
"R  c #A0A4AB",
"E  c #A0A5AB",
"W  c #A0A5AC",
"Q  c #A0A6AC",
"!  c #A1A6AC",
"~  c #A1A6AD",
"^  c #A1A7AD",
"/  c #A2A7AD",
"(  c #A1A7AE",
")  c #A2A7AE",
"_  c #A2A8AE",
"`  c #A3A8AE",
"'  c #A2A8AF",
"]  c #A3A8AF",
"[  c #A3A9AF",
"{  c #A4A9AF",
"}  c #A3A9B0",
"|  c #A4A9B0",
" . c #A5AAB0",
".. c #A5AAB1",
"X. c #A5ABB1",
"o. c #A6ABB1",
"O. c #A7ABB2",
"+. c #A7ACB2",
"@. c #A6ACB3",
"#. c #A7ACB3",
"$. c #A7ADB3",
"%. c #A8ADB3",
"&. c #A9ADB4",
"*. c #A8AEB4",
"=. c #A9AEB4",
"-. c #A9AFB5",
";. c #AAAFB4",
":. c #AAAFB5",
">. c #AAB0B6",
",. c #ABB0B6",
"<. c #ACB0B6",
"1. c #ACB1B7",
"2. c #ADB2B7",
"3. c #ACB2B8",
"4. c #ADB2B8",
"5. c #ADB3B8",
"6. c #ADB2B9",
"7. c #ADB3B9",
"8. c #AEB3B9",
"9. c #AEB4BA",
"0. c #AFB4BA",
"q. c #AFB5BA",
"w. c #B0B5BB",
"e. c #B0B6BB",
"r. c #B0B6BC",
"t. c #B1B6BC",
"y. c #B1B7BC",
"u. c #B2B7BC",
"i. c #B2B7BD",
"p. c #B3B8BD",
"a. c #B3B8BE",
"s. c #B3B9BE",
"d. c #B3B9BF",
"f. c #B4B9BE",
"g. c #B4B9BF",
"h. c #B4BABF",
"j. c #B5BABF",
"k. c #B5BAC0",
"l. c #B6BBC0",
"z. c #B6BBC1",
"x. c #B7BCC1",
"c. c #B7BCC2",
"v. c #B7BDC2",
"b. c #B8BDC2",
"n. c #B8BDC3",
"m. c #B8BEC3",
"M. c #B9BEC3",
"N. c #B9BEC4",
"B. c #B9BFC4",
"V. c #BABFC4",
"C. c #BABFC5",
"Z. c #BAC0C5",
"A. c #BBC0C5",
"S. c #BBC0C6",
"D. c #BBC1C6",
"F. c #BCC1C6",
"G. c #BCC1C7",
"H. c #BDC2C7",
"J. c #BDC2C8",
"K. c #BEC3C8",
"L. c #BEC3C9",
"P. c #BEC4C9",
"I. c #BFC4C9",
"U. c #BFC4CA",
"Y. c #C0C5CA",
"T. c #C0C5CB",
"R. c #C0C6CB",
"E. c #C1C6CB",
"W. c #C2C6CB",
"Q. c #C1C6CC",
"!. c #C2C7CC",
"~. c #C2C7CD",
"^. c #C3C8CC",
"/. c #C3C8CD",
"(. c #C3C8CE",
"). c #C4C9CE",
"_. c #C5CACE",
"`. c #C5CACF",
"'. c #C6CBCF",
"]. c None",
/* pixels */
"].].].].].].].].].].].].].].].].].].].].].].].].].].].].].].].].",
"].].].].].].].].].].].U.Y.Q.(.Y.Y.Y.Q._.Y.].].].].].].].].].].].",
"].].].].].].].].].A.A.A.V.z.z.g.g.w.4.w.k.C.F.].].].].].].].].].",
"].].].].].].].z.v.V.v.V.A.Q.Q._.'.Q.L.v.4.$.4.v.C.].].].].].].].",
"].].].].].].g.z.C.V.C.F.U.(.(._._._.(.Q.L.v.$.` w.z.].].].].].].",
"].].].].].y.z.C.v.v.C.F.U.Y.(.(._.Q.Q.U.L.L.C.1.I ,.a.].].].].].",
"].].].].q.g.A.z.v.V.A.A.F.U.Y.Y.Y.Y.U.L.C.C.V.z.4.V =.y.].].].].",
"].].].4.y.F.g.y.].C.v.A.A.F.L.L.L.L.L.A.C.V.z.z.g.,.V =.q.].].].",
"].].].1.F.g.w.g.].].V.z.V.C.F.A.L.C.C.C.C.n.z.k.a.y.} x ,.].].].",
"].].%.g.C.4.q.y.].].z.z.z.V.C.C.C.V.V.V.z.z.y.k.y.w.4.h / ,.].].",
"].].%.C.w.=.4.].].].z.g.z.z.z.z.n.n.n.g.z.a.y.y.w.4.4.` e $.].].",
"].o.1.V.=.=.q.].].].].a.z.a.z.z.g.g.z.a.a.a.y.y.4.4.1.$.9 / ].].",
"].` a.a.o.=.].].].].].y.y.g.k.k.g.z.g.a.y.y.w.4.4.,.=.%.h x o.].",
"]./ v.1.o.=.].].4.].].a.w.y.y.y.y.].g.w.y.4.4.4.,.=.$.o.x 9 ` ].",
"]./ C.$.` ].].].,.4.].].4.4.w.4.y.].].w.4.4.4.,.=.=.$.o.I 9 / ].",
"]./ V.` ` ].].=.$.,.].].4.4.4.4.].].].4.4.].].].].].].].].].].].",
"].U V.{ o.].].o.o.$.].].4.=.=.1.].].].].].].].].].].].].].].].].",
"].V V.o.].].} / { o.=.].].%.%.1.].].].].].].%.o.} ` / ` x 1 V ].",
"].x g.q.].]./ / / / o.].].%.o.].].=.%.].].].} / / / U I f 1 V ].",
"].h 4.].]./ V I V / / ].].o.o.].].o.{ ].].` / / I V V b : 1 V ].",
"].h I ].].V b I U / U ] ].].].].]./ / / / / U I I V v h O e ].].",
"].].].].].s b b V V V / ].].].]./ R I U U V V V b x h 9 O f ].].",
"].].].].1.s e f b b b V ].].].].I V V I V b b b h f e : : h ].].",
"].].].].a.` e e f h h b I ].].U h b b b b h h f e e 9 O 1 ].].].",
"].].].e V a.x 9 e e f f x ].].x f s f f e e e e e 1 1 : e ].].].",
"].].].].1 / q.x : 6 6 6 f ].].e e e e e e e e 1 : : O 9 ].].].].",
"].].].].].: U q.b 1 : 1 : x e 1 6 1 1 1 : : : : 9 : : ].].].].].",
"].].].].].].X x 1.` 6 X : 1 : : : : & : & : e 9 : O ].].].].].].",
"].].].].].].].O 1 ` $.` h 1 : O & : : 1 e f : O : ].].].].].].].",
"].].].].].].].].].  : x / ` / I I b v e 1 X O ].].].].].].].].].",
"].].].].].].].].].].].      O : O O     X ].].].].].].].].].].].",
"].].].].].].].].].].].].].].].].].].].].].].].].].].].].].].].]."
};
